<svg id="Layer_1" data-name="Layer 1" xmlns="http://www.w3.org/2000/svg" viewBox="0 0 196.37 293.28"><defs><style>.cls-1{fill:#fff;}</style></defs><polygon class="cls-1" points="132.03 276.06 132.03 272.07 113.89 272.07 113.89 292.41 132.03 292.41 132.03 288.43 117.87 288.43 117.87 284.24 121.77 284.24 121.77 280.25 117.87 280.25 117.87 276.06 132.03 276.06"/><polygon class="cls-1" points="99.9 272.07 99.9 280.25 86.67 280.25 86.67 272.07 82.68 272.07 82.68 292.41 86.67 292.41 86.67 284.24 99.9 284.24 99.9 292.41 103.89 292.41 103.89 272.07 99.9 272.07"/><polygon class="cls-1" points="35.75 288.43 35.75 272.07 31.76 272.07 31.76 292.41 47.91 292.41 47.91 288.43 35.75 288.43"/><path class="cls-1" d="M317.73,451.77h4l-9.95-20.33h-4l-10,20.33h4l2.05-4.19h11.83ZM305.8,443.6l4-8.1,4,8.1Z" transform="translate(-297.81 -159.36)"/><polygon class="cls-1" points="160.41 272.07 153.48 282.24 146.56 272.07 141.53 272.07 141.53 292.41 145.52 292.41 145.52 277.53 153.48 288.43 161.45 277.53 161.45 292.41 165.43 292.41 165.43 272.07 160.41 272.07"/><path class="cls-1" d="M368,446.7a7.09,7.09,0,1,1,0-10.19l2.74-2.85a11,11,0,1,0,0,15.89Z" transform="translate(-297.81 -159.36)"/><polygon class="cls-1" points="196.37 272.07 191.85 272.07 184.42 282.24 177 272.07 172.47 272.07 182.43 285.7 182.43 292.41 186.41 292.41 186.41 285.7 196.37 272.07"/><path class="cls-1" d="M453.82,307h28.92L410.46,159.36H381.54L309.26,307h28.92l14.9-30.43h85.84Zm-86.58-59.35L396,188.9l28.76,58.73Z" transform="translate(-297.81 -159.36)"/><rect class="cls-1" y="197.4" width="196.37" height="24.89"/></svg>