<svg 
    xmlns="http://www.w3.org/2000/svg" 
    viewBox="0 0 616.71 69.31"
    fill="white" 
>
    <polygon points="414.64 15.23 414.64 2.72 357.67 2.72 357.67 66.59 414.64 66.59 414.64 54.08 370.18 54.08 370.18 40.91 382.43 40.91 382.43 28.4 370.18 28.4 370.18 15.23 414.64 15.23"/>
    <polygon points="313.74 2.72 313.74 28.4 272.17 28.4 272.17 2.72 259.66 2.72 259.66 66.59 272.17 66.59 272.17 40.91 313.74 40.91 313.74 66.59 326.26 66.59 326.26 2.72 313.74 2.72"/>
    <polygon points="112.27 54.08 112.27 2.72 99.75 2.72 99.75 66.59 150.47 66.59 150.47 54.08 112.27 54.08"/>
    <path d="M151.67,338.79h12.51l-31.27-63.87H120.39L89.12,338.79h12.52l6.44-13.16h37.14Zm-37.46-25.68,12.44-25.41,12.44,25.41Z" transform="translate(-89.12 -272.2)"/>
    <polygon points="503.78 2.72 482.01 34.65 460.26 2.72 444.48 2.72 444.48 66.59 457 66.59 457 19.84 482.01 54.08 507.03 19.84 507.03 66.59 519.54 66.59 519.54 2.72 503.78 2.72"/>
    <path d="M309.59,322.87a22.25,22.25,0,1,1,0-32l8.61-8.93a34.66,34.66,0,1,0,0,49.89Z" transform="translate(-89.12 -272.2)"/>
    <polygon points="616.71 2.72 602.5 2.72 579.18 34.65 555.86 2.72 541.65 2.72 572.92 45.51 572.92 66.59 585.43 66.59 585.43 45.51 616.71 2.72"/>
</svg>
